<svg xmlns="http://www.w3.org/2000/svg" width="1200" height="700" viewBox="0 0 1200 700">

<defs>
  <filter id="shadow" x="-20%" y="-20%" width="140%" height="140%">
    <feDropShadow dx="0" dy="18" stdDeviation="24" flood-color="#000000" flood-opacity=".28"/>
  </filter>
  <filter id="glow" x="-50%" y="-50%" width="200%" height="200%">
    <feGaussianBlur stdDeviation="34"/>
  </filter>
  <linearGradient id="surface" x1="0" y1="0" x2="1" y2="1">
    <stop offset="0" stop-color="#111827"/>
    <stop offset="1" stop-color="#070B12"/>
  </linearGradient>
</defs>

<defs>
  <radialGradient id="dbGlow" cx="85%" cy="15%" r="70%">
    <stop offset="0" stop-color="#FF5B47" stop-opacity=".35"/>
    <stop offset=".5" stop-color="#F59E0B" stop-opacity=".12"/>
    <stop offset="1" stop-color="#080C14" stop-opacity="0"/>
  </radialGradient>
  <linearGradient id="dbLine" x1="0" y1="0" x2="1" y2="1">
    <stop offset="0" stop-color="#FF6B57"/><stop offset="1" stop-color="#FBBF24"/>
  </linearGradient>
</defs>
<rect x="14" y="14" width="1172" height="672" rx="38" fill="#080C14"/>
<rect x="14.5" y="14.5" width="1171" height="671" rx="37.5" fill="none" stroke="#343C4B"/>
<rect x="14" y="14" width="1172" height="672" rx="38" fill="url(#dbGlow)"/>

<g transform="translate(58 58)">
  <rect width="128" height="36" rx="18" fill="#241713" stroke="#5A3029"/>
  <text x="19" y="24" fill="#FFB19E" font-family="Inter,Segoe UI,sans-serif" font-size="16" font-weight="700" letter-spacing="1.2">DATA / ML</text>

  <text x="0" y="118" fill="#F8FAFC" font-family="Inter,Segoe UI,sans-serif" font-size="52" font-weight="760">Deutsche Bahn</text>
  <text x="0" y="174" fill="#F8FAFC" font-family="Inter,Segoe UI,sans-serif" font-size="52" font-weight="760">Delay Analysis</text>
  <text x="0" y="222" fill="#9EABBE" font-family="Inter,Segoe UI,sans-serif" font-size="22">Real-time ELT + ML prediction platform</text>

  <g transform="translate(0 472)">
    <rect width="100" height="38" rx="12" fill="#131B28"/><text x="19" y="25" fill="#D5DEEA" font-family="ui-monospace,monospace" font-size="16">Python</text>
    <rect x="112" width="68" height="38" rx="12" fill="#131B28"/><text x="133" y="25" fill="#D5DEEA" font-family="ui-monospace,monospace" font-size="16">dbt</text>
    <rect x="192" width="112" height="38" rx="12" fill="#131B28"/><text x="210" y="25" fill="#D5DEEA" font-family="ui-monospace,monospace" font-size="16">XGBoost</text>
    <rect x="316" width="104" height="38" rx="12" fill="#131B28"/><text x="334" y="25" fill="#D5DEEA" font-family="ui-monospace,monospace" font-size="16">FastAPI</text>
  </g>

  <g transform="translate(0 548)">
    <rect width="132" height="48" rx="24" fill="url(#dbLine)"/>
    <text x="28" y="31" fill="#0A0D12" font-family="Inter,Segoe UI,sans-serif" font-size="18" font-weight="800">LIVE ↗</text>
    <text x="158" y="31" fill="#7E8999" font-family="Inter,Segoe UI,sans-serif" font-size="16">Automated pipeline · predictive analytics</text>
  </g>
</g>

<g transform="translate(675 98)">
  <rect width="455" height="420" rx="30" fill="#0E1521" stroke="#343F50"/>
  <rect x="28" y="28" width="399" height="48" rx="14" fill="#131C2B"/>
  <circle cx="54" cy="52" r="6" fill="#FF6B6B"/><circle cx="76" cy="52" r="6" fill="#FFD166"/><circle cx="98" cy="52" r="6" fill="#43E6A6"/>
  <text x="126" y="58" fill="#8390A3" font-family="Inter,Segoe UI,sans-serif" font-size="15">Delay analytics</text>

  <text x="30" y="118" fill="#A9B4C4" font-family="Inter,Segoe UI,sans-serif" font-size="15">AVG DELAY BY STATION</text>
  <g transform="translate(34 150)">
    <line x1="0" y1="202" x2="360" y2="202" stroke="#263143"/>
    <line x1="0" y1="0" x2="0" y2="202" stroke="#263143"/>
    <rect x="20" y="36" width="250" height="24" rx="6" fill="#FF5D4A"/>
    <rect x="20" y="76" width="210" height="24" rx="6" fill="#F97948"/>
    <rect x="20" y="116" width="164" height="24" rx="6" fill="#F7A23E"/>
    <rect x="20" y="156" width="112" height="24" rx="6" fill="#F8C34A"/>
    <circle cx="298" cy="48" r="8" fill="#43E6A6"/>
    <path d="M294 48 L298 52 L306 42" fill="none" stroke="#07110D" stroke-width="3"/>
  </g>
  <g transform="translate(290 334)">
    <rect width="125" height="52" rx="16" fill="#161E2B"/>
    <text x="16" y="20" fill="#8592A5" font-family="Inter,Segoe UI,sans-serif" font-size="12">MODEL</text>
    <text x="16" y="40" fill="#F8FAFC" font-family="Inter,Segoe UI,sans-serif" font-size="18" font-weight="700">XGBoost</text>
  </g>
</g>
</svg>