<svg xmlns="http://www.w3.org/2000/svg" width="1200" height="700" viewBox="0 0 1200 700">
<defs>
  <radialGradient id="ragGlow" cx="84%" cy="12%" r="75%">
    <stop offset="0" stop-color="#7C5CFF" stop-opacity=".38"/>
    <stop offset=".48" stop-color="#22D3EE" stop-opacity=".12"/>
    <stop offset="1" stop-color="#080C14" stop-opacity="0"/>
  </radialGradient>
  <linearGradient id="ragBtn" x1="0" y1="0" x2="1" y2="1">
    <stop offset="0" stop-color="#8B7CFF"/><stop offset="1" stop-color="#43D9E7"/>
  </linearGradient>
</defs>
<rect x="14" y="14" width="1172" height="672" rx="38" fill="#080C14"/>
<rect x="14.5" y="14.5" width="1171" height="671" rx="37.5" fill="none" stroke="#343C4B"/>
<rect x="14" y="14" width="1172" height="672" rx="38" fill="url(#ragGlow)"/>
<g transform="translate(58 58)">
  <rect width="150" height="36" rx="18" fill="#18152B" stroke="#3F356E"/>
  <text x="18" y="24" fill="#BEB6FF" font-family="Inter,Segoe UI,sans-serif" font-size="16" font-weight="700" letter-spacing="1.2">AI / FULL STACK</text>
  <text x="0" y="118" fill="#F8FAFC" font-family="Inter,Segoe UI,sans-serif" font-size="48" font-weight="760">RAG Documentation</text>
  <text x="0" y="174" fill="#F8FAFC" font-family="Inter,Segoe UI,sans-serif" font-size="48" font-weight="760">Assistant</text>
  <text x="0" y="222" fill="#9EABBE" font-family="Inter,Segoe UI,sans-serif" font-size="22">Grounded answers with citations &amp; vector search</text>
  <g transform="translate(0 472)">
    <rect width="104" height="38" rx="12" fill="#131B28"/><text x="18" y="25" fill="#D5DEEA" font-family="ui-monospace,monospace" font-size="16">FastAPI</text>
    <rect x="116" width="96" height="38" rx="12" fill="#131B28"/><text x="132" y="25" fill="#D5DEEA" font-family="ui-monospace,monospace" font-size="16">Next.js</text>
    <rect x="224" width="118" height="38" rx="12" fill="#131B28"/><text x="241" y="25" fill="#D5DEEA" font-family="ui-monospace,monospace" font-size="16">LangChain</text>
    <rect x="354" width="104" height="38" rx="12" fill="#131B28"/><text x="371" y="25" fill="#D5DEEA" font-family="ui-monospace,monospace" font-size="16">pgvector</text>
  </g>
  <g transform="translate(0 548)">
    <rect width="132" height="48" rx="24" fill="url(#ragBtn)"/>
    <text x="28" y="31" fill="#071017" font-family="Inter,Segoe UI,sans-serif" font-size="18" font-weight="800">LIVE ↗</text>
    <text x="158" y="31" fill="#7E8999" font-family="Inter,Segoe UI,sans-serif" font-size="16">RAG · citations · observability</text>
  </g>
</g>
<g transform="translate(668 102)">
  <rect width="466" height="416" rx="30" fill="#0E1521" stroke="#374257"/>
  <rect x="28" y="28" width="410" height="46" rx="13" fill="#141C2A"/>
  <circle cx="52" cy="51" r="6" fill="#FF6B6B"/><circle cx="74" cy="51" r="6" fill="#FFD166"/><circle cx="96" cy="51" r="6" fill="#43E6A6"/>
  <text x="123" y="57" fill="#8490A2" font-family="Inter,Segoe UI,sans-serif" font-size="14">Documentation Assistant</text>
  <rect x="28" y="98" width="266" height="244" rx="18" fill="#111A28" stroke="#293649"/>
  <rect x="311" y="98" width="127" height="244" rx="18" fill="#111A28" stroke="#293649"/>
  <rect x="48" y="121" width="168" height="18" rx="9" fill="#26344B"/>
  <rect x="48" y="151" width="214" height="14" rx="7" fill="#1F2A3D"/>
  <rect x="48" y="177" width="190" height="14" rx="7" fill="#1F2A3D"/>
  <rect x="48" y="221" width="223" height="64" rx="14" fill="#171F30"/>
  <rect x="61" y="237" width="174" height="10" rx="5" fill="#596A84"/>
  <rect x="61" y="256" width="122" height="10" rx="5" fill="#39485F"/>
  <circle cx="256" cy="306" r="11" fill="#7C6CFF"/>
  <path d="M252 306 L256 310 L263 301" fill="none" stroke="#0A0D13" stroke-width="3"/>
  <text x="330" y="124" fill="#AAB6C7" font-family="Inter,Segoe UI,sans-serif" font-size="13" font-weight="700">SOURCES</text>
  <rect x="329" y="144" width="92" height="58" rx="12" fill="#172235"/>
  <rect x="342" y="157" width="63" height="8" rx="4" fill="#6D7D97"/>
  <rect x="342" y="174" width="46" height="8" rx="4" fill="#394861"/>
  <rect x="329" y="214" width="92" height="58" rx="12" fill="#172235"/>
  <rect x="342" y="227" width="63" height="8" rx="4" fill="#6D7D97"/>
  <rect x="342" y="244" width="54" height="8" rx="4" fill="#394861"/>
  <rect x="329" y="285" width="92" height="31" rx="15" fill="#1D2B3F"/>
  <text x="349" y="306" fill="#7DD3FC" font-family="Inter,Segoe UI,sans-serif" font-size="12">cited ✓</text>
</g>
</svg>